<svg width="65" height="80" viewBox="0 0 65 80" fill="none" xmlns="http://www.w3.org/2000/svg">
<path d="M16.0303 78.1475C14.4614 77.1016 13.0682 75.8136 11.9025 74.3315C10.6316 72.7952 9.45362 71.1792 8.37188 69.5068C5.83156 65.791 3.84214 61.7272 2.46544 57.4418C0.806329 52.4578 0 47.6862 0 43.0175C0 37.8078 1.1282 33.2619 3.32486 29.4459C4.96284 26.4561 7.36816 23.9568 10.2931 22.2056C13.1273 20.4476 16.3824 19.4848 19.7169 19.4182C20.8783 19.4182 22.1392 19.5842 23.4665 19.916C24.4288 20.1814 25.5901 20.6128 27.017 21.1437C28.842 21.8406 29.8375 22.2719 30.1693 22.3715C31.2311 22.7697 32.127 22.9356 32.8239 22.9356C33.3548 22.9356 34.118 22.7697 34.9641 22.5042C35.4453 22.3383 36.3578 22.0396 37.6519 21.4755C38.9327 21.011 39.9481 20.6128 40.7544 20.3142C41.9822 19.9492 43.1701 19.6173 44.2386 19.4514C45.5327 19.2523 46.8168 19.186 48.0479 19.2855C50.4038 19.4514 52.5607 19.9492 54.4852 20.6792C57.8698 22.0396 60.6007 24.1633 62.6381 27.1829C61.7754 27.7138 60.979 28.331 60.2324 29.0079C58.6164 30.4348 57.246 32.127 56.151 34.0018C54.728 36.5576 53.9917 39.4386 54.0141 42.3638C54.0638 45.9574 54.9763 49.1164 56.8014 51.8539C58.1305 53.884 59.8631 55.6189 61.8915 56.9507C62.9202 57.6475 63.8227 58.1286 64.6788 58.4439C64.2806 59.6882 63.8426 60.8994 63.3349 62.0939C62.1835 64.7717 60.8131 67.3367 59.1872 69.759C57.7537 71.8495 56.6255 73.4091 55.7694 74.4377C54.4355 76.0305 53.148 77.225 51.8539 78.0778C50.4271 79.0235 48.7514 79.5246 47.0358 79.5246C45.8745 79.5743 44.7131 79.425 43.6048 79.1031C42.6425 78.7879 41.6935 78.4329 40.7644 78.0314C39.7908 77.5859 38.7874 77.209 37.7614 76.9032C36.5006 76.5735 35.2022 76.4095 33.899 76.4154C32.5717 76.4154 31.2776 76.5813 30.0498 76.8965C29.0212 77.1885 28.0257 77.5469 27.0402 77.9749C25.6466 78.5556 24.734 78.9372 24.2031 79.1031C23.1334 79.4196 22.0315 79.6144 20.9181 79.6838C19.1926 79.6838 17.5866 79.1861 15.9872 78.1906L16.0303 78.1475ZM38.7735 16.8931C36.5171 18.0213 34.3735 18.4991 32.2266 18.3398C31.8948 16.1963 32.2266 13.993 33.1225 11.5806C33.9189 9.5233 34.9807 7.6651 36.4407 6.00599C37.9671 4.28051 39.7921 2.85367 41.8494 1.82502C44.0395 0.696827 46.13 0.0995467 48.1209 0C48.3864 2.25639 48.1209 4.4796 47.2913 6.86872C46.5277 8.99099 45.4053 10.9664 43.9731 12.7088C42.5297 14.4343 40.7378 15.8611 38.7104 16.8898L38.7735 16.8931Z" fill="white"/>
</svg>
