<svg width="93" height="93" viewBox="0 0 93 93" fill="none" xmlns="http://www.w3.org/2000/svg">
<path d="M46.38 0C20.7666 0 0 20.7666 0 46.38C0 71.9934 20.7666 92.76 46.38 92.76C71.9934 92.76 92.76 71.9934 92.76 46.38C92.76 20.7666 71.9934 0 46.38 0ZM26.9081 29.6832C29.8223 29.6832 32.0756 31.8051 32.3385 34.3212C32.6051 36.5745 31.6775 38.5611 29.1614 39.7554C27.8357 40.4163 27.3062 40.4202 27.0395 40.0221C26.9081 39.7554 27.0395 39.4926 27.3062 39.2259C29.6909 37.2393 29.6909 35.6469 29.4242 33.3975C29.2928 31.9365 28.2338 31.0089 27.1709 31.0089C22.533 31.0089 15.9083 41.3439 16.8359 48.9C17.234 51.8142 18.9578 55.2618 22.6682 55.2618C23.8586 55.2618 25.1805 54.8637 26.3786 54.3342C28.3111 53.3138 29.4668 52.5176 30.6185 51.2422C30.3364 47.8216 33.3395 43.3344 37.7726 43.3344C39.7631 43.3344 41.3516 44.1267 41.483 45.5877C41.7459 47.5743 40.0259 47.8371 39.4964 47.8371C38.9669 47.8371 38.0355 47.7057 38.0355 47.1801C37.9041 46.6467 39.2298 46.9095 39.0983 45.7191C38.9631 44.9229 38.1707 44.6601 37.3745 44.6601C34.5918 44.6601 33.0032 48.5019 33.3975 50.8866C33.5327 51.9495 34.0622 53.0085 35.1251 53.0085C35.9174 53.0085 37.1117 51.8103 37.5098 50.0904C37.7726 48.9 38.8355 48.1038 39.7631 48.1038C40.1573 48.1038 40.4202 48.2352 40.5554 48.7647V49.2981C40.424 49.8276 40.0259 51.4161 40.1612 51.8142C40.1612 52.0809 40.2926 52.4751 40.8183 52.4751C41.1738 52.4751 42.5034 51.7794 43.8214 50.7011C44.2736 48.4207 44.7992 45.6843 44.7992 45.4563C44.9306 44.5287 45.3287 43.6011 47.1839 43.6011C47.582 43.6011 47.8448 43.7325 47.9762 44.262V44.7953L47.4506 47.1801C49.1705 44.9268 51.6905 43.3382 53.279 43.3382C53.9438 43.3382 54.4733 43.7325 54.4733 44.3973C54.4733 44.7954 54.4733 45.4563 54.2066 46.121C53.6771 47.5781 53.0123 49.8314 52.6142 51.8181C52.6142 52.3476 52.7495 52.8771 53.4143 52.8771C54.0752 52.8771 56.0618 52.0809 57.6503 49.9629L57.6774 49.9474C57.6697 49.6846 57.6503 49.4295 57.6503 49.1667C57.6503 47.5781 57.7856 46.2525 58.0523 45.3249C58.3151 44.2658 59.6408 43.3382 60.437 43.3382C60.8351 43.3382 61.2293 43.6049 61.2293 43.9992C61.2293 44.1344 61.2293 44.3973 61.0979 44.5287C60.5684 46.2525 60.1703 47.841 60.1703 49.4333C60.1703 50.361 60.3017 51.6828 60.5646 52.479C60.5646 52.6104 60.6998 52.7457 60.8351 52.7457C61.0979 52.7457 62.9531 51.0257 64.2749 48.7724C63.0845 47.9762 62.4198 46.6506 62.4198 45.062C62.4198 42.2792 64.1435 40.8221 65.7359 40.8221C67.0616 40.8221 68.1206 41.7497 68.1206 43.6049C68.1206 44.7953 67.7225 46.1172 67.0616 47.3153H67.4558C67.8763 47.329 68.2948 47.2534 68.6839 47.0935C69.0729 46.9336 69.4237 46.6931 69.713 46.3877C69.8346 46.187 70.0156 46.0289 70.2309 45.9355C71.5257 44.2929 73.4389 43.0754 75.6806 43.0754C77.5358 43.0754 79.2518 43.8678 79.3871 45.3249C79.6499 47.3153 77.9261 47.7134 77.3966 47.7134L77.3889 47.7057C76.8555 47.7057 75.9318 47.5704 75.9318 47.0409C75.9318 46.5114 77.1261 46.7781 76.9908 45.5877C76.8594 44.7915 76.0632 44.5248 75.267 44.5248C72.6156 44.5248 70.8996 47.9685 71.2938 50.7513C71.4252 51.8142 71.9547 53.0046 73.0137 53.0046C73.8099 53.0046 75.0042 51.8142 75.5337 50.0904C75.7965 49.0314 76.8594 48.1038 77.787 48.1038C78.1851 48.1038 78.444 48.2352 78.5793 48.7647C78.5793 49.0314 78.5793 49.5609 78.0498 51.2847C77.3928 52.4751 77.3889 53.1399 77.5203 53.6694C77.6517 54.7284 78.1812 55.5246 78.7146 55.9227C78.846 56.0541 78.9774 56.3169 78.9774 56.3169C78.9774 56.5836 78.846 56.8503 78.4479 56.8503C78.3165 56.8503 78.1851 56.8503 78.0498 56.715C76.0632 55.9227 75.267 54.597 75.0003 53.2713C74.208 54.1989 73.2804 54.7284 72.2175 54.7284C70.4976 54.7284 68.7777 53.1399 68.5071 51.1494C68.4312 50.3023 68.5299 49.4485 68.797 48.641C68.0124 49.1435 67.166 49.4256 66.3891 49.4256H65.7321C64.0044 51.9456 62.1492 53.6694 60.8235 54.4617C60.3733 54.7014 59.8758 54.8386 59.3664 54.8637C59.1036 54.8637 58.7055 54.7284 58.5741 54.4617C58.2069 53.8742 57.9711 52.9466 57.8281 51.8838C55.9691 53.9206 53.4027 54.9951 52.2123 54.9951C50.8866 54.9951 50.0943 54.1989 49.9629 52.8693V51.4161C50.3571 48.5019 51.42 46.7781 51.42 46.2486C51.4163 46.1787 51.3872 46.1125 51.338 46.0626C51.2889 46.0128 51.2231 45.9827 51.1533 45.978C50.2257 45.978 47.1801 49.1628 46.6467 51.2847L46.2486 53.0046C45.9858 54.1989 44.7915 54.9951 43.9992 54.9951C43.6011 54.9951 43.3344 54.8598 43.203 54.3303V53.8008L43.3808 52.9003C41.6995 54.0984 40.0182 54.8637 39.2259 54.8637C38.0355 54.8637 37.3707 54.1989 37.2393 53.2713C36.4431 54.3303 35.5193 54.8637 34.3251 54.8637C32.9646 54.8637 31.635 53.9361 30.9934 52.5717C30.0504 53.6346 28.972 54.7091 27.7005 55.5246C25.8453 56.7189 23.7272 57.6465 21.2073 57.6465C18.9578 57.6465 16.9674 56.4522 15.9083 55.3932C14.316 53.9361 13.3922 51.6828 13.257 49.5609C12.4646 43.0677 16.4378 34.7193 22.5329 31.0089C23.9939 30.2166 25.451 29.6832 26.9081 29.6832ZM64.6692 42.4029C64.2672 42.4029 64.0044 43.0677 64.0044 43.7286C64.0044 44.7876 64.5339 45.9819 65.1987 46.6467C65.4578 45.9236 65.5911 45.1615 65.5929 44.3934C65.5929 43.0677 65.0673 42.4029 64.6692 42.4029Z" fill="white"/>
</svg>
