<svg width="93" height="53" viewBox="0 0 93 53" fill="none" xmlns="http://www.w3.org/2000/svg">
<path d="M0 0L7.81503 17.7403L15.6301 0H0ZM7.81503 29.3779C10.5128 29.3779 12.7081 27.1941 12.7081 24.508C12.7081 21.8063 10.5128 19.6303 7.81503 19.6303C7.16319 19.612 6.51429 19.7245 5.9067 19.9613C5.29911 20.1981 4.74517 20.5543 4.27762 21.0088C3.81008 21.4634 3.43843 22.0071 3.18465 22.6078C2.93087 23.2085 2.80011 23.8539 2.80011 24.506C2.80011 25.1581 2.93087 25.8036 3.18465 26.4043C3.43843 27.005 3.81008 27.5487 4.27762 28.0032C4.74517 28.4578 5.29911 28.814 5.9067 29.0508C6.51429 29.2875 7.16319 29.4001 7.81503 29.3817V29.3779ZM3.58672 42.372C3.58672 46.0708 6.91835 52.0693 16.3992 52.0693C25.88 52.0693 29.2117 47.4777 29.2117 42.3681V0.00772944H20.7512L20.755 43.8446C20.755 46.2409 18.811 48.2507 16.4031 48.2507C15.2492 48.2517 14.142 47.7948 13.3246 46.9803C12.5072 46.1658 12.0464 45.0603 12.0433 43.9064L12.0395 34.9744H3.58672V42.372ZM35.6237 51.304V0H52.5292C55.7951 0 60.982 2.67845 60.982 8.35999V17.0988C60.982 19.6574 58.7403 24.1833 55.4164 24.1833C58.7403 24.1833 60.982 27.0511 60.982 29.2271V44.606C60.982 47.2187 58.8717 51.304 52.5292 51.304H35.6237ZM48.6874 22.0885C51.7639 22.0885 52.5331 21.5706 52.5331 13.5314C52.5331 5.49217 51.7601 4.85057 48.6874 4.85057H44.0687V22.0769L48.6874 22.0885ZM52.5331 36.818C52.5331 28.7749 52.5331 26.4211 49.1937 26.4211H44.0687V47.0912L49.1937 47.1028C52.5292 47.1028 52.5292 44.8572 52.5292 36.8219L52.5331 36.818ZM67.1389 51.304H92.76V34.9705H84.2995L84.3072 43.8987C84.3072 45.0544 83.8481 46.1628 83.0309 46.9801C82.2136 47.7973 81.1052 48.2565 79.9495 48.2565C78.7937 48.2565 77.6853 47.7973 76.868 46.9801C76.0508 46.1628 75.5917 45.0544 75.5917 43.8987V0.00386472H67.1351L67.1389 51.304Z" fill="white"/>
</svg>
