<svg width="49" height="89" viewBox="0 0 49 89" fill="none" xmlns="http://www.w3.org/2000/svg">
<path d="M0 0.0147253L17.4863 49.5655V49.5397L18.8705 53.4419C26.5571 75.1913 30.6876 86.8501 30.7097 86.8758C30.7244 86.8758 31.8877 86.9494 33.294 87.0231C37.5496 87.2071 42.8287 87.6857 46.8266 88.1643C47.7469 88.2747 48.5421 88.3115 48.5936 88.2747L31.2545 39.0921L29.6495 34.5641L20.7296 9.34691C19.0362 4.56117 17.6005 0.482255 17.5268 0.327639L17.4127 0H0.0184071L0 0.0147253ZM31.3208 0.044176L31.284 19.5773L31.2545 39.1105L29.6458 34.5751V34.5677L27.5658 78.0443C29.609 83.813 30.7023 86.8905 30.7134 86.9053C30.7281 86.92 31.8914 86.9936 33.2977 87.0599C37.557 87.2439 42.8323 87.7225 46.845 88.2011C47.7653 88.3115 48.5642 88.3484 48.612 88.3115C48.6599 88.2747 48.6857 68.3587 48.6746 44.0987L48.6452 0.0368133H31.3208V0.044176ZM0 0.00736267V44.1466C0 68.4213 0.0257706 88.3042 0.0552213 88.3336C0.084672 88.3631 1.58666 88.2232 3.39419 88.017C5.19804 87.7962 7.70135 87.5385 8.95301 87.428C10.8599 87.244 16.566 86.8758 17.2286 86.8758C17.4201 86.8758 17.4348 85.8819 17.4606 68.1746L17.49 49.4735L18.8889 53.3757L19.3675 54.7599L21.4659 11.3201L20.7664 9.3101L17.5268 0.327639L17.4164 0.00736267H0Z" fill="white"/>
</svg>
