<svg width="93" height="72" viewBox="0 0 93 72" fill="none" xmlns="http://www.w3.org/2000/svg">
<path d="M0 0V19.6729C0 27.0937 5.1791 32.0022 11.9042 32.0022C15.1895 32.0022 18.1269 30.7268 20.2139 28.5237V31.4611H24.8906V0H20.1753V19.4023C20.1753 24.3882 16.8127 27.7507 12.4453 27.7507C8.0392 27.7507 4.7153 24.4655 4.7153 19.4023V0H0ZM28.4077 0V31.4611H32.8525V28.5624C33.9243 29.6579 35.2054 30.527 36.6196 31.1179C38.0338 31.7088 39.5523 32.0095 41.0849 32.0022C42.6631 32.0124 44.2275 31.7098 45.688 31.1117C47.1484 30.5137 48.4759 29.6322 49.5936 28.5181C50.7113 27.4039 51.5971 26.0794 52.1998 24.6208C52.8026 23.1623 53.1102 21.5988 53.1051 20.0207C53.1102 18.4426 52.8026 16.8791 52.1998 15.4206C51.5971 13.962 50.7113 12.6375 49.5936 11.5233C48.4759 10.4092 47.1484 9.52768 45.688 8.92965C44.2275 8.33162 42.6631 8.02898 41.0849 8.0392C37.877 8.0392 35.0169 9.3533 32.8525 11.4404V0H28.4077ZM66.7099 8.07785C59.9075 8.07785 54.9216 13.5275 54.9216 19.9821C54.9216 26.8231 60.2167 31.8863 67.0964 31.8863C71.2706 31.8863 74.7104 30.1084 76.9908 27.055L73.7056 24.6201C72.005 26.9004 69.7633 28.0213 67.0964 28.0213C63.2314 28.0213 60.1394 25.1998 59.521 21.4894H78.1503V19.9821C78.1503 13.1797 73.3191 8.07785 66.7099 8.07785ZM90.6343 8.3484C88.122 8.3484 86.3055 9.5079 85.1846 11.3631V8.54165H80.6626V31.4611H85.2232V18.3588C85.2232 14.8803 87.3877 12.5613 90.3251 12.5613H92.2189V8.3484H90.6343ZM66.5939 12.0202C69.9951 12.0202 72.8166 14.3778 73.5896 17.895H59.5983C60.41 14.3778 63.2314 12.0202 66.5939 12.0202ZM40.7757 12.0975C45.0659 12.0975 48.6217 15.576 48.6217 20.0207C48.6217 24.4268 45.0659 28.0213 40.7757 28.0213C39.7273 28.0265 38.6882 27.8226 37.7195 27.4214C36.7508 27.0202 35.8718 26.4299 35.134 25.6849C34.3962 24.9399 33.8144 24.0552 33.4226 23.0826C33.0309 22.11 32.8371 21.0691 32.8525 20.0207C32.8525 15.576 36.4083 12.0975 40.7757 12.0975ZM0 39.4617V70.9228H22.1078V65.5504H5.99075V57.7431H21.6827V52.5254H5.99075V44.834H22.1078V39.4617H0ZM56.2744 41.085V47.6941H51.791V52.9505H56.2744V65.3185C56.2744 68.4492 58.4775 70.9228 62.4584 70.9228H68.797V65.6664H64.3909C63.0382 65.6664 62.1879 65.048 62.1879 63.8112V52.9505H68.797V47.6941H62.1879V41.085H56.2744ZM36.0218 47.1144C29.1034 47.1144 23.6538 52.5254 23.6538 59.3278C23.6538 66.0915 29.1034 71.5025 36.0218 71.5025C38.8046 71.5025 41.3941 70.5363 43.4426 68.8357V70.9228H49.3174V47.6941H43.4426V49.7812C41.3632 48.0409 38.7333 47.0958 36.0218 47.1144ZM81.3196 47.1144C75.1743 47.1144 70.8841 49.6266 70.8841 54.5352C70.8841 57.8977 73.2418 60.1008 78.3436 61.183L83.9478 62.4971C86.1508 62.9222 86.7306 63.502 86.7306 64.4296C86.7306 65.8596 85.03 66.7872 82.3632 66.7872C79.0006 66.7872 77.0681 66.0142 76.2951 63.4633H70.3816C71.2319 68.2946 74.8264 71.5025 82.1699 71.5025C88.895 71.5025 92.76 68.2946 92.76 63.8112C92.76 60.6419 90.5183 58.2842 85.7644 57.2793L80.7785 56.2358C77.8797 55.6946 76.9521 55.0763 76.9521 54.0714C76.9521 52.68 78.3436 51.8297 80.9331 51.8297C83.7159 51.8297 85.7644 52.6027 86.3441 55.0763H92.2189C91.9097 50.3223 88.3926 47.1144 81.3196 47.1144ZM36.5243 52.2162C40.4279 52.2162 43.5586 55.3468 43.5586 59.3278C43.5586 63.3087 40.4279 66.4007 36.5243 66.4007C35.594 66.4058 34.6719 66.2264 33.8115 65.8727C32.9511 65.5191 32.1693 64.9983 31.5115 64.3405C30.8537 63.6827 30.3329 62.9009 29.9793 62.0405C29.6256 61.1801 29.4462 60.258 29.4513 59.3278C29.4513 55.3468 32.6592 52.2162 36.5243 52.2162Z" fill="white"/>
</svg>
